<?xml version="1.0" standalone="no"?>
<!DOCTYPE svg PUBLIC "-//W3C//DTD SVG 20010904//EN"
 "http://www.w3.org/TR/2001/REC-SVG-20010904/DTD/svg10.dtd">
<svg version="1.0" xmlns="http://www.w3.org/2000/svg"
 width="113.000000pt" height="113.000000pt" viewBox="0 0 113.000000 113.000000"
 preserveAspectRatio="xMidYMid meet">

<g transform="translate(0.000000,113.000000) scale(0.100000,-0.100000)"
fill="#000000" stroke="none">
<path d="M0 565 l0 -565 565 0 565 0 0 565 0 565 -565 0 -565 0 0 -565z m718
295 l32 -12 0 -82 0 -83 -56 19 c-34 12 -76 18 -108 16 -47 -3 -51 -5 -51 -28
0 -22 10 -29 77 -55 89 -35 132 -64 152 -103 49 -97 13 -203 -88 -254 -72 -37
-200 -35 -298 4 -27 10 -28 12 -28 95 0 77 2 84 18 78 81 -35 122 -46 162 -47
54 -1 70 6 70 31 0 25 -15 36 -101 71 -41 17 -89 45 -107 63 -92 89 -43 249
89 293 50 16 185 13 237 -6z"/>
</g>
</svg>
