<?xml version="1.0" standalone="no"?>
<!DOCTYPE svg PUBLIC "-//W3C//DTD SVG 20010904//EN"
 "http://www.w3.org/TR/2001/REC-SVG-20010904/DTD/svg10.dtd">
<svg version="1.0" xmlns="http://www.w3.org/2000/svg"
 width="500.000000pt" height="500.000000pt" viewBox="0 0 500.000000 500.000000"
 preserveAspectRatio="xMidYMid meet">

<g transform="translate(0.000000,500.000000) scale(0.100000,-0.100000)"
fill="#000000" stroke="none">
<path d="M2383 4020 c-162 -21 -319 -68 -480 -145 -274 -131 -492 -332 -661
-610 l-42 -70 7 45 c13 75 10 347 -4 361 -9 9 -16 -6 -33 -62 -12 -41 -46
-148 -75 -239 -30 -91 -66 -210 -79 -264 -14 -55 -30 -102 -35 -105 -5 -4 -15
-37 -21 -74 -6 -37 -22 -103 -35 -145 -14 -42 -25 -95 -24 -117 0 -34 6 -22
34 70 l34 110 0 -165 c2 -259 33 -422 111 -567 22 -40 36 -73 32 -73 -5 0 -29
13 -55 29 -54 35 -109 105 -136 176 -20 49 -20 49 -20 16 -2 -75 101 -200 195
-238 44 -17 49 -23 101 -128 82 -163 164 -276 293 -405 217 -217 475 -356 784
-422 137 -29 424 -31 566 -4 554 107 995 489 1173 1016 57 167 68 236 74 440
6 212 -12 352 -66 518 -37 113 -96 242 -110 242 -15 0 -15 2 23 -82 139 -299
173 -661 94 -988 -78 -327 -282 -634 -557 -841 -354 -265 -801 -363 -1231
-270 -497 109 -902 462 -1082 944 -27 75 -30 89 -24 167 7 114 24 166 116 360
43 91 88 199 100 240 24 85 36 248 26 333 -8 61 -22 74 -32 30 -12 -60 -40
-123 -96 -221 -105 -182 -150 -315 -165 -487 l-7 -80 -8 64 c-7 49 -5 75 7
110 9 25 38 175 65 332 46 271 51 291 91 370 213 425 630 723 1115 800 118 18
360 16 474 -5 119 -22 311 -84 415 -135 44 -22 82 -38 84 -36 10 11 -22 32
-103 70 -194 91 -382 134 -606 140 -85 2 -187 0 -227 -5z m-1187 -617 c-6
-106 -30 -295 -55 -443 -71 -406 -81 -460 -91 -460 -12 0 -40 122 -46 203 -7
84 9 229 37 342 16 61 105 347 144 463 13 37 17 -1 11 -105z m161 -462 c-9
-155 -39 -256 -130 -438 -61 -121 -107 -242 -107 -279 0 -14 -4 -22 -10 -19
-15 9 -12 157 5 260 25 153 51 221 147 392 38 67 74 136 79 153 6 16 13 30 16
30 3 0 3 -44 0 -99z m-312 -566 c5 -67 25 -181 51 -295 5 -24 4 -23 -11 4 -46
79 -80 232 -90 401 l-6 110 24 -70 c14 -38 28 -106 32 -150z"/>
<path d="M3423 3754 c-15 -39 38 -67 60 -32 8 12 7 21 -2 32 -17 21 -50 20
-58 0z"/>
<path d="M3630 3585 c-18 -22 -8 -50 19 -50 32 0 49 28 32 49 -17 20 -35 20
-51 1z"/>
<path d="M3797 3383 c-12 -11 -8 -40 7 -52 26 -22 63 10 50 44 -6 15 -45 21
-57 8z"/>
<path d="M1527 3214 c-4 -4 -7 -108 -7 -231 l0 -223 60 0 60 0 0 85 0 85 60 0
60 0 0 -85 0 -85 60 0 60 0 -2 228 -3 227 -55 0 -55 0 -3 -88 -3 -88 -57 3
-57 3 -5 85 -5 85 -50 3 c-28 2 -54 0 -58 -4z m93 -109 l0 -85 80 0 80 0 0 85
0 85 40 0 40 0 -2 -202 -3 -203 -35 0 -35 0 -5 85 -5 85 -75 0 -75 0 -3 -87
-3 -88 -34 0 -35 0 0 205 0 205 35 0 35 0 0 -85z"/>
<path d="M2124 3212 c-9 -6 -184 -428 -184 -444 0 -5 29 -8 64 -8 l64 0 16 40
16 40 73 0 74 0 16 -40 15 -40 66 0 66 0 -19 48 c-71 182 -156 389 -164 400
-10 13 -85 16 -103 4z m162 -212 c97 -243 92 -220 49 -220 -33 0 -37 4 -55 45
l-19 45 -90 0 -89 0 -18 -45 c-15 -41 -20 -45 -50 -45 -19 0 -34 3 -34 8 -1 4
34 96 77 205 l78 198 39 -3 38 -3 74 -185z"/>
<path d="M2136 3009 c-14 -38 -26 -72 -26 -75 0 -2 28 -4 61 -4 l62 0 -6 28
c-8 41 -45 122 -55 122 -6 0 -21 -32 -36 -71z m64 -41 c0 -5 -11 -8 -25 -8
-27 0 -31 10 -14 42 11 21 12 21 25 -3 7 -13 13 -27 14 -31z"/>
<path d="M2456 3212 c-3 -5 37 -107 87 -228 l93 -219 50 -3 50 -3 93 222 c56
135 89 225 83 231 -5 5 -35 8 -67 6 l-58 -3 -50 -129 -50 -129 -51 129 -51
129 -62 3 c-34 2 -64 -1 -67 -6z m149 -119 c21 -54 46 -118 55 -143 10 -25 21
-45 26 -45 5 0 34 64 64 142 l55 143 38 0 c20 0 37 -3 37 -7 0 -5 -37 -97 -82
-206 -82 -198 -82 -198 -112 -195 -29 3 -33 11 -112 198 -46 107 -83 198 -83
203 -1 4 17 7 38 7 l39 0 37 -97z"/>
<path d="M2987 3214 c-4 -4 -7 -108 -7 -231 l0 -223 135 0 135 0 0 55 0 55
-75 0 -75 0 0 30 0 30 70 0 70 0 0 55 0 55 -70 0 -70 0 0 30 0 29 73 3 72 3 0
55 0 55 -126 3 c-69 1 -128 -1 -132 -4z m233 -54 l0 -30 -70 0 -70 0 0 -55 0
-55 70 0 70 0 0 -30 c0 -29 0 -29 -67 -32 l-68 -3 -3 -57 -3 -58 71 0 70 0 0
-30 0 -31 -107 3 -108 3 -3 203 -2 202 110 0 110 0 0 -30z"/>
<path d="M3327 3213 c-4 -3 -7 -107 -7 -230 l0 -223 60 0 60 0 0 110 c0 61 3
110 8 110 4 0 38 -50 76 -110 l70 -111 60 3 61 3 3 222 2 223 -23 5 c-13 4
-41 5 -63 3 l-39 -3 -5 -114 -5 -114 -70 109 c-38 60 -74 112 -80 116 -13 10
-99 10 -108 1z m183 -158 c47 -74 90 -133 95 -132 6 2 11 59 13 135 l3 132 34
0 35 0 0 -205 0 -205 -39 0 c-38 0 -38 0 -122 132 -47 72 -90 133 -97 136 -9
3 -12 -29 -12 -132 l0 -136 -35 0 -35 0 0 205 0 205 38 0 c37 0 38 -1 122
-135z"/>
<path d="M1869 2477 c-73 -48 -88 -141 -32 -199 15 -16 54 -43 86 -59 41 -21
57 -35 55 -47 -5 -25 -59 -27 -107 -3 -22 12 -44 21 -48 21 -5 0 -21 -21 -36
-47 l-29 -47 24 -18 c73 -56 209 -62 274 -13 40 31 54 60 54 113 -1 63 -32 99
-122 142 -61 28 -73 43 -52 61 13 11 24 10 64 -4 26 -9 50 -17 54 -17 7 0 46
75 46 90 0 20 -83 50 -141 50 -42 0 -65 -6 -90 -23z m176 -19 c11 -6 21 -12
23 -13 1 -1 -3 -14 -9 -29 -9 -19 -17 -25 -28 -20 -31 14 -101 16 -116 4 -20
-17 -19 -54 3 -72 9 -8 43 -27 75 -42 59 -28 97 -71 97 -109 0 -34 -32 -88
-61 -102 -41 -22 -145 -19 -197 5 l-43 19 18 28 c9 15 18 29 19 31 1 2 19 -6
40 -17 43 -23 70 -26 108 -12 54 21 35 79 -37 112 -27 13 -63 36 -79 50 -53
51 -30 141 46 175 33 15 105 11 141 -8z"/>
<path d="M2187 2494 c-4 -4 -7 -108 -7 -231 l0 -223 60 0 60 0 0 85 0 85 60 0
60 0 0 -85 0 -85 60 0 60 0 -2 228 -3 227 -55 0 -55 0 -5 -85 -5 -85 -55 0
-55 0 -5 85 -5 85 -50 3 c-28 2 -54 0 -58 -4z m93 -109 l0 -85 80 0 80 0 0 85
0 85 40 0 40 0 -2 -202 -3 -203 -35 0 -35 0 -5 85 -5 85 -75 0 -75 0 -3 -87
-3 -88 -34 0 -35 0 0 205 0 205 35 0 35 0 0 -85z"/>
<path d="M2745 2481 c-147 -67 -182 -267 -66 -382 70 -71 163 -88 251 -48 94
42 134 107 134 214 0 78 -20 129 -71 177 -61 58 -169 75 -248 39z m185 -26
c132 -69 147 -264 27 -359 -36 -29 -45 -31 -116 -31 -67 0 -83 4 -118 27 -113
74 -114 271 -2 345 66 43 146 50 209 18z"/>
<path d="M2784 2394 c-79 -39 -94 -175 -24 -236 24 -22 40 -28 78 -28 80 0
122 48 122 138 0 106 -88 170 -176 126z m118 -39 c49 -48 47 -138 -4 -180 -78
-66 -174 10 -154 120 16 81 104 114 158 60z"/>
<path d="M3142 2488 c-13 -13 -18 -401 -6 -432 5 -12 21 -16 65 -16 l59 0 0
80 0 80 45 0 c86 0 149 51 156 125 7 93 -29 147 -112 164 -68 15 -192 14 -207
-1z m235 -35 c62 -29 81 -113 40 -174 -25 -37 -74 -57 -144 -58 l-43 -1 0 -80
0 -80 -35 0 -35 0 0 205 0 205 91 0 c64 0 101 -5 126 -17z"/>
<path d="M3238 2414 c-5 -4 -8 -36 -8 -71 l0 -63 45 0 c32 0 51 6 65 20 25 25
26 72 2 93 -20 18 -93 33 -104 21z m89 -51 c13 -19 12 -24 -6 -42 -12 -12 -30
-21 -41 -21 -17 0 -20 7 -20 46 0 43 1 45 26 42 15 -2 33 -13 41 -25z"/>
<path d="M1870 1410 l0 -70 30 0 c22 0 30 5 31 18 0 9 2 31 3 47 4 48 -10 75
-39 75 -24 0 -25 -2 -25 -70z m40 25 c0 -8 -4 -15 -10 -15 -5 0 -10 7 -10 15
0 8 5 15 10 15 6 0 10 -7 10 -15z m0 -55 c0 -11 -4 -20 -10 -20 -5 0 -10 9
-10 20 0 11 5 20 10 20 6 0 10 -9 10 -20z"/>
<path d="M1950 1473 c1 -5 7 -19 15 -33 8 -14 14 -42 15 -62 0 -27 4 -38 15
-38 10 0 15 10 15 34 0 18 7 50 15 70 13 30 13 36 1 36 -8 0 -17 -12 -21 -27
l-7 -28 -14 28 c-13 25 -34 37 -34 20z"/>
<path d="M2100 1411 c0 -41 4 -71 10 -71 6 0 10 9 10 20 0 11 4 20 9 20 5 0
11 -9 14 -20 11 -42 22 -17 22 48 l0 67 -32 3 -33 3 0 -70z m50 19 c0 -11 -7
-20 -15 -20 -8 0 -15 9 -15 20 0 11 7 20 15 20 8 0 15 -9 15 -20z"/>
<path d="M2190 1410 c0 -40 4 -70 10 -70 6 0 10 30 10 70 0 40 -4 70 -10 70
-6 0 -10 -30 -10 -70z"/>
<path d="M2240 1470 c0 -5 7 -10 15 -10 20 0 19 -9 -5 -65 -11 -26 -20 -49
-20 -51 0 -2 16 -4 35 -4 19 0 35 5 35 10 0 6 -7 10 -15 10 -8 0 -15 6 -15 14
0 7 7 30 15 49 21 50 19 57 -15 57 -16 0 -30 -4 -30 -10z"/>
<path d="M2330 1464 c0 -8 4 -13 9 -9 20 12 20 -16 1 -64 l-20 -51 35 0 c18 0
37 5 40 10 3 6 -3 10 -14 10 -26 0 -26 7 -1 70 l20 50 -35 0 c-25 0 -35 -4
-35 -16z"/>
<path d="M2420 1410 c0 -40 4 -70 10 -70 6 0 10 12 10 28 l1 27 15 -27 c8 -16
19 -28 24 -28 13 0 13 6 -5 40 -14 27 -14 33 0 60 18 34 18 40 5 40 -5 0 -16
-12 -24 -27 l-15 -28 -1 28 c0 15 -4 27 -10 27 -6 0 -10 -30 -10 -70z"/>
<path d="M2512 1413 l3 -68 30 0 30 0 3 68 c2 40 -1 67 -7 67 -6 0 -11 -25
-13 -55 -2 -30 -7 -55 -13 -55 -5 0 -11 25 -13 55 -2 30 -7 55 -13 55 -6 0 -9
-27 -7 -67z"/>
<path d="M2600 1410 c0 -71 16 -97 23 -37 l3 32 13 -32 c7 -18 17 -33 21 -33
9 0 17 81 12 118 -5 34 -22 26 -22 -10 l-1 -33 -14 33 c-23 52 -35 39 -35 -38z"/>
<path d="M2700 1410 c0 -40 4 -70 10 -70 6 0 10 30 10 70 0 40 -4 70 -10 70
-6 0 -10 -30 -10 -70z"/>
<path d="M2830 1410 c0 -68 15 -97 22 -42 l4 27 14 -27 c16 -34 36 -38 25 -5
-10 30 -11 78 -1 100 13 29 -12 20 -28 -10 l-15 -28 -1 28 c0 15 -4 27 -10 27
-6 0 -10 -30 -10 -70z"/>
<path d="M2940 1423 c-7 -32 -15 -63 -17 -70 -3 -7 2 -13 11 -13 9 0 16 7 16
15 0 20 20 19 36 -2 21 -30 24 -10 8 60 -20 85 -38 88 -54 10z m27 -25 c-3 -7
-5 -2 -5 12 0 14 2 19 5 13 2 -7 2 -19 0 -25z"/>
<path d="M3057 1473 c-10 -16 -29 -125 -23 -131 4 -3 13 3 21 14 15 19 15 19
30 0 24 -31 28 -12 14 55 -13 57 -30 82 -42 62z m23 -68 c0 -8 -4 -15 -10 -15
-5 0 -10 7 -10 15 0 8 5 15 10 15 6 0 10 -7 10 -15z"/>
<path d="M3137 1473 c-4 -3 -7 -35 -7 -70 0 -49 3 -63 15 -63 10 0 15 11 16
33 l1 32 10 -32 c6 -18 17 -33 24 -33 11 0 14 18 14 71 0 52 -3 70 -12 67 -7
-3 -16 -18 -19 -34 l-5 -29 -8 33 c-7 31 -16 39 -29 25z"/>
<path d="M2740 1339 c0 -11 5 -17 10 -14 6 3 10 13 10 21 0 8 -4 14 -10 14 -5
0 -10 -9 -10 -21z"/>
</g>
</svg>
